<svg xmlns="http://www.w3.org/2000/svg" xmlns:xlink="http://www.w3.org/1999/xlink" width="500" zoomAndPan="magnify" viewBox="0 0 375 374.999991" height="500" preserveAspectRatio="xMidYMid meet" version="1.0"><path fill="#004aad" d="M 234.582031 187.75 C 234.582031 212.261719 214.792969 232.527344 189.804688 232.527344 C 164.820312 232.527344 145.027344 212.738281 145.027344 187.75 C 145.027344 162.761719 164.820312 142.972656 189.804688 142.972656 C 214.792969 142.972656 234.582031 163.238281 234.582031 187.75 " fill-opacity="1" fill-rule="nonzero"/><path fill="#004aad" d="M 265.671875 121.300781 C 293.472656 160.878906 349.550781 148.625 349.550781 148.625 C 332.125 76.523438 267.078125 23.257812 189.804688 23.257812 C 98.847656 23.28125 25.339844 96.789062 25.339844 187.75 C 25.339844 240.539062 50.328125 287.171875 88.953125 317.335938 L 88.953125 187.75 C 88.953125 132.148438 134.179688 86.894531 189.804688 86.894531 C 220.445312 86.894531 247.289062 100.078125 265.671875 121.300781 " fill-opacity="1" fill-rule="nonzero"/><path fill="#004aad" d="M 268.988281 250.433594 C 250.605469 273.988281 221.851562 288.605469 189.804688 288.605469 C 173.785156 288.605469 158.691406 284.839844 145.027344 278.234375 L 145.027344 346.089844 C 159.167969 350.332031 174.234375 352.21875 189.804688 352.21875 C 267.078125 352.21875 331.644531 298.976562 349.550781 226.851562 C 349.550781 226.851562 290.636719 217.433594 268.964844 250.40625 " fill-opacity="1" fill-rule="nonzero"/></svg>